<svg width="15" height="99" viewBox="0 0 15 99" fill="none" xmlns="http://www.w3.org/2000/svg">
<path fill-rule="evenodd" clip-rule="evenodd" d="M13.8472 7.77717C14.2378 7.38665 14.2378 6.75349 13.8472 6.36296L7.77724 0.292962C7.58971 0.105425 7.33535 6.83671e-05 7.07014 6.83555e-05C6.80492 6.83439e-05 6.55057 0.105425 6.36303 0.292962L0.293031 6.36296C-0.0974941 6.75349 -0.0974941 7.38665 0.293031 7.77717C0.683555 8.1677 1.31672 8.1677 1.70724 7.77717L6.07007 3.41435L6.07007 95.086L1.70712 90.7231C1.3166 90.3325 0.683433 90.3325 0.292909 90.7231C-0.0976162 91.1136 -0.0976163 91.7468 0.292909 92.1373L6.36291 98.2073C6.55044 98.3948 6.8048 98.5002 7.07001 98.5002C7.33523 98.5002 7.58958 98.3948 7.77712 98.2073L13.8471 92.1373C14.2376 91.7468 14.2376 91.1136 13.8471 90.7231C13.4566 90.3325 12.8234 90.3325 12.4329 90.7231L8.07007 95.0859L8.07007 3.41421L12.433 7.77717C12.8236 8.1677 13.4567 8.1677 13.8472 7.77717Z" fill="#292D32"/>
</svg>
